<svg width="700" height="700" xmlns="http://www.w3.org/2000/svg" version="1.1">

 <g>
  <title>Layer 1</title>
  <path id="svg_1" fill-rule="evenodd" d="m0,109.33449c0,-60.38263 48.95186,-109.33449 109.33449,-109.33449l481.07177,0c60.38263,0 109.33449,48.95186 109.33449,109.33449l0,481.07177c0,60.38263 -48.95186,109.33449 -109.33449,109.33449l-481.07177,0c-60.38263,0 -109.33449,-48.95186 -109.33449,-109.33449l0,-481.07177zm109.33449,21.8669c0,-12.07565 9.79125,-21.8669 21.8669,-21.8669l87.46759,0c12.07565,0 21.8669,9.79125 21.8669,21.8669l0,437.33797c0,12.07565 -9.79125,21.8669 -21.8669,21.8669l-87.46759,0c-12.07565,0 -21.8669,-9.79125 -21.8669,-21.8669l0,-437.33797zm174.93519,0c0,-12.07565 9.79125,-21.8669 21.8669,-21.8669l87.46759,0c12.07565,0 21.8669,9.79125 21.8669,21.8669l0,174.93519c0,12.07565 -9.79125,21.8669 -21.8669,21.8669l-87.46759,0c-12.07565,0 -21.8669,-9.79125 -21.8669,-21.8669l0,-174.93519zm174.93519,0c0,-12.07565 9.79125,-21.8669 21.8669,-21.8669l87.46759,0c12.07565,0 21.8669,9.79125 21.8669,21.8669l0,306.13658c0,12.07565 -9.79125,21.8669 -21.8669,21.8669l-87.46759,0c-12.07565,0 -21.8669,-9.79125 -21.8669,-21.8669l0,-306.13658z"/>
 </g>
</svg>